<svg width="24" height="24" viewBox="0 0 24 24" fill="none" xmlns="http://www.w3.org/2000/svg">
<path d="M14 1C15.5975 1 16.9036 2.24866 16.9951 3.82324L17 4V5H21C21.5523 5 22 5.44772 22 6C22 6.51284 21.6136 6.9354 21.1162 6.99316L21 7H20V20C20 21.5975 18.7513 22.9036 17.1768 22.9951L17 23H7C5.40248 23 4.09636 21.7513 4.00488 20.1768L4 20V7H3C2.44772 7 2 6.55228 2 6C2 5.48716 2.38645 5.0646 2.88379 5.00684L3 5H7V4C7 2.40248 8.24866 1.09636 9.82324 1.00488L10 1H14ZM6 20C6 20.5128 6.38645 20.9354 6.88379 20.9932L7 21H17C17.5128 21 17.9354 20.6136 17.9932 20.1162L18 20V7H6V20ZM10 10C10.5128 10 10.9354 10.3865 10.9932 10.8838L11 11V17C11 17.5523 10.5523 18 10 18C9.48716 18 9.0646 17.6136 9.00684 17.1162L9 17V11C9 10.4477 9.44772 10 10 10ZM14 10C14.5128 10 14.9354 10.3865 14.9932 10.8838L15 11V17C15 17.5523 14.5523 18 14 18C13.4872 18 13.0646 17.6136 13.0068 17.1162L13 17V11C13 10.4477 13.4477 10 14 10ZM10 3C9.48716 3 9.0646 3.38645 9.00684 3.88379L9 4V5H15V4C15 3.48716 14.6135 3.0646 14.1162 3.00684L14 3H10Z" fill="#0A1629"/>
</svg>
