<svg width="24" height="29" viewBox="0 0 24 29" fill="none" xmlns="http://www.w3.org/2000/svg">
<path fill-rule="evenodd" clip-rule="evenodd" d="M19.7903 13.8034L19.7071 13.6954L14.7071 7.96507C14.3166 7.5175 13.6834 7.5175 13.2929 7.96507C12.9324 8.37821 12.9047 9.02829 13.2097 9.47789L13.2929 9.58585L16.585 13.3597H5C4.44772 13.3597 4 13.8728 4 14.5058C4 15.0935 4.38604 15.578 4.88338 15.6442L5 15.6519H16.585L13.2929 19.4257C12.9324 19.8389 12.9047 20.489 13.2097 20.9386L13.2929 21.0465C13.6534 21.4597 14.2206 21.4914 14.6129 21.1419L14.7071 21.0465L19.7071 15.3162C20.0676 14.9031 20.0953 14.253 19.7903 13.8034Z" fill="white"/>
</svg>
