<svg width="24" height="18" viewBox="0 0 24 18" fill="none" xmlns="http://www.w3.org/2000/svg">
<path d="M12.0001 0C15.3799 0 18.3387 1.63287 20.8546 4.31641C21.7187 5.23818 22.4695 6.22221 23.1056 7.20703C23.4044 7.66971 23.6305 8.05669 23.7823 8.33789L23.8946 8.55273C24.0354 8.83426 24.0354 9.16574 23.8946 9.44727C23.7853 9.66593 23.601 9.99814 23.3438 10.415L23.1056 10.793C22.4695 11.7778 21.7187 12.7618 20.8546 13.6836C18.3387 16.3671 15.3799 18 12.0001 18C8.62032 18 5.66141 16.3671 3.14559 13.6836C2.28146 12.7618 1.53067 11.7778 0.894615 10.793C0.595801 10.3303 0.369684 9.94331 0.217857 9.66211L0.105552 9.44727C-0.035184 9.16576 -0.035184 8.83424 0.105552 8.55273C0.214879 8.33408 0.399168 8.00186 0.656333 7.58496L0.894615 7.20703C1.53067 6.22221 2.28146 5.23818 3.14559 4.31641C5.66141 1.63287 8.62032 3.35152e-05 12.0001 0ZM12.0001 2C9.25499 2.00003 6.77617 3.36729 4.60458 5.68359C3.82831 6.51162 3.14906 7.40302 2.5743 8.29297C2.47415 8.44806 2.38117 8.59771 2.29501 8.74023L2.14071 9L2.29501 9.25977L2.42977 9.47949L2.5743 9.70703C3.14906 10.597 3.82831 11.4884 4.60458 12.3164C6.77617 14.6327 9.25499 16 12.0001 16C14.7452 16 17.224 14.6327 19.3956 12.3164C20.1719 11.4884 20.8511 10.597 21.4259 9.70703C21.526 9.55194 21.619 9.40229 21.7052 9.25977L21.8585 9L21.7052 8.74023L21.5704 8.52051L21.4259 8.29297C20.8511 7.40301 20.1719 6.51162 19.3956 5.68359C17.224 3.36729 14.7452 2 12.0001 2ZM12.0001 5C14.2092 5 16.0001 6.79086 16.0001 9C16.0001 11.2091 14.2092 13 12.0001 13C9.79094 13 8.00008 11.2091 8.00008 9C8.00008 6.79086 9.79094 5 12.0001 5ZM12.0001 7C10.8955 7 10.0001 7.89543 10.0001 9C10.0001 10.1046 10.8955 11 12.0001 11C13.1047 11 14.0001 10.1046 14.0001 9C14.0001 7.89543 13.1047 7 12.0001 7Z" fill="#7D8592"/>
</svg>
