<svg width="24" height="24" viewBox="0 0 24 24" fill="none" xmlns="http://www.w3.org/2000/svg">
<path d="M18.4714 4.24088C18.9123 3.82545 19.6008 3.82548 20.0408 4.24186L20.1062 4.30436C20.5829 4.7558 20.5819 5.51505 20.1043 5.96549L14.2312 11.4997L20.1043 17.0339C20.5823 17.4843 20.5832 18.2444 20.1062 18.696L20.0408 18.7575C19.6009 19.1739 18.9123 19.1747 18.4714 18.7594L12.4998 13.1315L6.52808 18.7594C6.08719 19.1749 5.39874 19.1739 4.95875 18.7575L4.89332 18.696C4.41626 18.2444 4.41723 17.4843 4.89527 17.0339L10.7673 11.4997L4.89527 5.96549C4.4173 5.51501 4.41628 4.75586 4.89332 4.30436L4.95875 4.24186C5.39875 3.82572 6.08729 3.8255 6.52808 4.24088L12.4998 9.86784L18.4714 4.24088Z" fill="#0A1629"/>
</svg>
