<svg width="54" height="54" viewBox="0 0 54 54" fill="none" xmlns="http://www.w3.org/2000/svg">
<circle cx="27" cy="27" r="26" fill="#F4F9FD" stroke="white" stroke-width="2"/>
<path fill-rule="evenodd" clip-rule="evenodd" d="M30.2507 26.3971C32.3398 25.0131 33.2731 22.4277 32.5483 20.0331C31.8236 17.6385 29.6121 16 27.1041 16C24.5962 16 22.3847 17.6385 21.6599 20.0331C20.9352 22.4277 21.8685 25.0131 23.9576 26.3971C22.2232 27.0353 20.7244 28.184 19.6595 29.6912C19.4965 29.9221 18.971 35.2494 19.1014 35.5C18.8183 35.5 19.2318 35.7506 19.1014 35.5H27.1006H35.1016C34.9712 35.7507 35.3847 35.5 35.1016 35.5C35.232 35.2493 34.7113 29.9215 34.5483 29.6906C33.4834 28.1837 31.9849 27.0352 30.2507 26.3971Z" fill="#91929E" fill-opacity="0.5"/>
</svg>
