<svg width="24" height="24" viewBox="0 0 24 24" fill="none" xmlns="http://www.w3.org/2000/svg">
<path d="M10.0312 3.17165C10.5833 3.17188 11.0312 3.61951 11.0312 4.17165C11.0311 4.68435 10.6447 5.10706 10.1475 5.16481L10.0312 5.17165H6C4.40238 5.17165 3.09621 6.42016 3.00488 7.99489L3 8.17165V18.1716C3.00016 19.769 4.24877 21.0743 5.82324 21.1658L6 21.1716H16C17.5977 21.1716 18.9039 19.9222 18.9951 18.3474L19 18.1716V13.2527C19.0002 12.7006 19.4478 12.2527 20 12.2527C20.5128 12.2527 20.9354 12.6392 20.9932 13.1365L21 13.2527V18.1716C20.9998 20.8603 18.8775 23.0532 16.2168 23.1668L16 23.1716H6C3.31132 23.1716 1.11856 21.0491 1.00488 18.3884L1 18.1716V8.17165C1 5.48289 3.1224 3.28912 5.7832 3.17555L6 3.17165H10.0312ZM15.8789 2.87868C17.0505 1.70711 18.9495 1.70711 20.1211 2.87868L21.293 4.04958C22.4644 5.22116 22.4645 7.12121 21.293 8.29274L12.707 16.8787C12.5195 17.0661 12.2651 17.1716 12 17.1716H8C7.44789 17.1716 7.00029 16.7237 7 16.1716V12.1716C7 11.9066 7.1056 11.6521 7.29297 11.4646L15.8789 2.87868ZM18.707 4.29274C18.3165 3.90222 17.6835 3.90222 17.293 4.29274L9 12.5857V15.1716H11.584L19.8789 6.87868C20.2393 6.51824 20.2668 5.95065 19.9619 5.55837L19.8789 5.46462L18.707 4.29274Z" fill="#0A1629"/>
</svg>
