<svg width="24" height="24" viewBox="0 0 24 24" fill="none" xmlns="http://www.w3.org/2000/svg">
<path d="M17.0928 2C17.8275 2.00004 18.5368 2.26971 19.0859 2.75781C20.3241 3.85858 20.4357 5.75486 19.335 6.99316L14.5459 12.3789V18.7637C14.5459 19.0595 14.4915 19.3524 14.3848 19.627L14.2949 19.8291C13.7066 21.0057 12.2753 21.4829 11.0986 20.8945L10.2051 20.4473C9.18873 19.9391 8.5459 18.9 8.5459 17.7637V12.3809L3.75781 6.99316C3.31853 6.49897 3.05592 5.87512 3.00781 5.21973L3 5C3 3.34315 4.34315 2 6 2H17.0928ZM6 4C5.44772 4 5 4.44772 5 5C5 5.24491 5.09022 5.48101 5.25293 5.66406L10.2939 11.3359C10.4565 11.5189 10.5459 11.7552 10.5459 12V17.7637C10.5459 18.1423 10.7601 18.4887 11.0986 18.6582L11.9932 19.1055C12.1818 19.1998 12.4115 19.1233 12.5059 18.9346C12.5323 18.8816 12.5459 18.8229 12.5459 18.7637V12C12.5459 11.7552 12.6362 11.519 12.7988 11.3359L17.8398 5.66406C18.2067 5.25131 18.1695 4.61984 17.7568 4.25293C17.5738 4.09025 17.3376 4.00004 17.0928 4H6Z" fill="#0A1629"/>
</svg>
