<svg width="24" height="24" viewBox="0 0 24 24" fill="none" xmlns="http://www.w3.org/2000/svg">
<path d="M3.75 6V10.5H8.25" stroke="white" stroke-width="2" stroke-linecap="round" stroke-linejoin="round"/>
<path d="M20.25 18V13.5H15.75" stroke="white" stroke-width="2" stroke-linecap="round" stroke-linejoin="round"/>
<path d="M18.3675 9.74993C17.9871 8.67502 17.3407 7.71399 16.4884 6.9565C15.6362 6.19901 14.6059 5.66976 13.4938 5.41813C12.3817 5.1665 11.2239 5.20069 10.1286 5.51751C9.03328 5.83434 8.03606 6.42347 7.23 7.22993L3.75 10.4999M20.25 13.4999L16.77 16.7699C15.9639 17.5764 14.9667 18.1655 13.8714 18.4824C12.7761 18.7992 11.6183 18.8334 10.5062 18.5817C9.3941 18.3301 8.36385 17.8009 7.5116 17.0434C6.65935 16.2859 6.01288 15.3248 5.6325 14.2499" stroke="white" stroke-width="2" stroke-linecap="round" stroke-linejoin="round"/>
</svg>
