<svg width="24" height="24" viewBox="0 0 24 24" fill="none" xmlns="http://www.w3.org/2000/svg">
<path d="M11.287 11.2928C11.6475 10.9326 12.2141 10.9049 12.6063 11.2098L12.701 11.2928L16.701 15.2928C17.0913 15.6832 17.0912 16.3163 16.701 16.7068C16.5442 16.8636 16.3481 16.9572 16.1444 16.9881C16.1334 16.9897 16.1223 16.9907 16.1112 16.992C16.0897 16.9945 16.0683 16.9967 16.0468 16.9978C15.8147 17.0087 15.5794 16.9396 15.3866 16.7898L15.2928 16.7068L14.7137 16.1277C14.7115 16.1278 14.7092 16.1276 14.7069 16.1277L12.994 14.4148V20.9998C12.994 21.5136 12.606 21.9365 12.1073 21.993C12.0815 21.9957 12.0555 21.9971 12.0292 21.9978C12.0185 21.9982 12.0077 21.9988 11.9969 21.9988C11.4855 21.9974 11.0646 21.6122 11.0067 21.116L10.9999 20.9998V16.1297C10.9979 16.1296 10.9959 16.1288 10.994 16.1287V14.4148L8.70105 16.7068C8.54424 16.8636 8.34811 16.9572 8.14441 16.9881C8.13336 16.9897 8.12229 16.9907 8.1112 16.992C8.08975 16.9945 8.0683 16.9967 8.04675 16.9978C7.81465 17.0087 7.57943 16.9396 7.3866 16.7898L7.29285 16.7068C7.0511 16.4651 6.95888 16.1299 7.01648 15.8172C7.01455 15.8169 7.01254 15.8165 7.01062 15.8162C7.03892 15.6632 7.10287 15.5153 7.203 15.3865L7.28699 15.2928L11.287 11.2928ZM2.90808 6.03593C4.30808 3.33593 7.20789 1.73593 10.2079 2.03593C13.2078 2.43597 15.708 4.63565 16.4081 7.63554H17.6083C19.608 7.63577 21.4077 9.13581 22.0077 11.1355C22.3076 12.5355 22.3074 14.3217 21.3094 15.0545C20.8381 15.4157 19.6081 15.6968 17.9882 15.8865C17.9614 15.4132 17.7696 14.9473 17.4081 14.5857L13.4081 10.5857L13.2684 10.4598L13.2206 10.4197C12.4281 9.80358 11.2941 9.87071 10.579 10.5857L6.57898 14.5857L6.45398 14.7254C6.22886 15.0139 6.09008 15.3372 6.0321 15.6658C5.11388 15.5049 4.31488 15.3027 3.70007 15.0545C1.4427 12.6554 1.7082 8.5359 2.90808 6.03593Z" fill="#174F9A"/>
</svg>
