<svg width="24" height="24" viewBox="0 0 24 24" fill="none" xmlns="http://www.w3.org/2000/svg">
<path d="M18.4719 4.24088C18.9128 3.82545 19.6013 3.82548 20.0413 4.24186L20.1067 4.30436C20.5834 4.7558 20.5824 5.51505 20.1047 5.96549L14.2317 11.4997L20.1047 17.0339C20.5828 17.4843 20.5837 18.2444 20.1067 18.696L20.0413 18.7575C19.6013 19.1739 18.9128 19.1747 18.4719 18.7594L12.5003 13.1315L6.52857 18.7594C6.08768 19.1749 5.39923 19.1739 4.95924 18.7575L4.89381 18.696C4.41675 18.2444 4.41772 17.4843 4.89576 17.0339L10.7678 11.4997L4.89576 5.96549C4.41779 5.51501 4.41677 4.75586 4.89381 4.30436L4.95924 4.24186C5.39924 3.82572 6.08778 3.8255 6.52857 4.24088L12.5003 9.86784L18.4719 4.24088Z" fill="#0A1629"/>
</svg>
