<svg width="22" height="22" viewBox="0 0 22 22" fill="none" xmlns="http://www.w3.org/2000/svg">
<path d="M9.03125 1.17165C9.58333 1.17188 10.0312 1.61951 10.0312 2.17165C10.0311 2.68435 9.6447 3.10706 9.14746 3.16481L9.03125 3.17165H5C3.40238 3.17165 2.09621 4.42016 2.00488 5.99489L2 6.17165V16.1716C2.00016 17.769 3.24877 19.0743 4.82324 19.1658L5 19.1716H15C16.5977 19.1716 17.9039 17.9222 17.9951 16.3474L18 16.1716V11.2527C18.0002 10.7006 18.4478 10.2527 19 10.2527C19.5128 10.2527 19.9354 10.6392 19.9932 11.1365L20 11.2527V16.1716C19.9998 18.8603 17.8775 21.0532 15.2168 21.1668L15 21.1716H5C2.31132 21.1716 0.118557 19.0491 0.00488281 16.3884L0 16.1716V6.17165C0 3.48289 2.1224 1.28912 4.7832 1.17555L5 1.17165H9.03125ZM14.8789 0.87868C16.0505 -0.292893 17.9495 -0.292893 19.1211 0.87868L20.293 2.04958C21.4644 3.22116 21.4645 5.12121 20.293 6.29274L11.707 14.8787C11.5195 15.0661 11.2651 15.1716 11 15.1716H7C6.44789 15.1716 6.00029 14.7237 6 14.1716V10.1716C6 9.90656 6.1056 9.65213 6.29297 9.46462L14.8789 0.87868ZM17.707 2.29274C17.3165 1.90222 16.6835 1.90222 16.293 2.29274L8 10.5857V13.1716H10.584L18.8789 4.87868C19.2393 4.51824 19.2668 3.95065 18.9619 3.55837L18.8789 3.46462L17.707 2.29274Z" fill="#0A1629"/>
</svg>
