<svg width="24" height="24" viewBox="0 0 24 24" fill="none" xmlns="http://www.w3.org/2000/svg">
<path d="M15.4004 1C15.9131 1.0002 16.3358 1.38658 16.3936 1.88379L16.4004 2V3H17C19.2091 3 21 4.79086 21 7V17C21 19.2091 19.2091 21 17 21H7C4.79086 21 3 19.2091 3 17V7C3 4.79086 4.79086 3 7 3H7.40039V2C7.40039 1.44772 7.84811 1 8.40039 1C8.91305 1.0002 9.3358 1.38658 9.39355 1.88379L9.40039 2V3H14.4004V2C14.4004 1.44772 14.8481 1 15.4004 1ZM5 9.5V17C5 18.1046 5.89543 19 7 19H17C18.1046 19 19 18.1046 19 17V9.5H5ZM7 5C5.89543 5 5 5.89543 5 7V7.5H19V7C19 5.89543 18.1046 5 17 5H16.4004L16.3945 5.10254C16.3432 5.60651 15.9179 5.9998 15.4004 6C14.8876 6 14.464 5.61355 14.4062 5.11621L14.4004 5H9.40039L9.39453 5.10254C9.34319 5.60651 8.91787 5.9998 8.40039 6C7.88755 6 7.46402 5.61355 7.40625 5.11621L7.40039 5H7Z" fill="#7D8592"/>
</svg>
