<svg width="24" height="24" viewBox="0 0 24 24" fill="none" xmlns="http://www.w3.org/2000/svg">
<path d="M12 2C16.4259 2 20 5.69585 20 10.2383C19.9999 12.6931 18.0989 16.1525 14.3291 20.7812C14.1993 20.9406 14.0531 21.0863 13.8936 21.2158C12.6073 22.2601 10.7183 22.0642 9.67188 20.7754L9.3623 20.3926C5.79805 15.9411 4.00009 12.6091 4 10.2383C4 5.69585 7.5741 2 12 2ZM12 4C8.69391 4 6 6.78573 6 10.2383C6.00011 12.0083 7.63103 15.0296 10.9219 19.1396L11.2266 19.5176C11.5747 19.9462 12.2041 20.0112 12.6328 19.6631C12.686 19.6199 12.7351 19.5717 12.7783 19.5186C16.27 15.2314 17.9999 12.0831 18 10.2383C18 6.78573 15.3061 4 12 4ZM12 6C14.2091 6 16 7.79086 16 10C16 12.2091 14.2091 14 12 14C9.79086 14 8 12.2091 8 10C8 7.79086 9.79086 6 12 6ZM12 8C10.8954 8 10 8.89543 10 10C10 11.1046 10.8954 12 12 12C13.1046 12 14 11.1046 14 10C14 8.89543 13.1046 8 12 8Z" fill="#7D8592"/>
</svg>
